<svg id="Layer_1" xmlns="http://www.w3.org/2000/svg" viewBox="0 0 75.8 61.8">
  <defs>
    <style>
      .cls-1 {
        fill: #fff;
      }
    </style>
  </defs>
  <title>ico-tw</title>
  <path class="cls-1" d="M37.3,19.1C19,19.2,5.2,3.1,5.2,3.2S-1.6,14.7,9.7,23.6c-1.8.2-6.5-1.4-6.5-1.4S2.1,33.3,15.3,37.3a54.5,54.5,0,0,1-6.8.3s3.3,10.2,14.3,10.9C15.5,55.7,0,55,0,55s13.2,7.4,23.7,6.8c45.8-2.3,44.7-46.3,44.7-46.3a37.9,37.9,0,0,0,7.4-7.6c-3.7.9-7.6,2.2-8.3,1.8a17.9,17.9,0,0,0,6.3-8.1S65.7,5.2,64.3,5c-9.8-9.4-20-2.7-20-2.7S35.2,8.1,37.3,19.1Z"/>
</svg>
