<svg id="Layer_1" data-name="Layer 1" xmlns="http://www.w3.org/2000/svg" viewBox="0 0 84 58.9">
  <defs>
    <style>
      .cls-1 {
        fill: #fff;
      }
    </style>
  </defs>
  <title>icon-youtube</title>
  <path  class="cls-1" d="M84,30s0-.3,0-.5h0v-.8C84,3.6,79.4,1.4,70.7.8h0S58,.1,42.1.1h0C26.2,0,13.3.9,13.3.9h0C4.6,1.6,0,3.7,0,28.8a1.6,1.6,0,0,1,.1.5H.2v.8c0,25.1,4.5,27.5,13.2,28h0s12.8.6,28.7.6h0c15.9,0,28.7-1,28.7-1h-.1C79.4,57.2,84,55,84,30ZM15,58h0ZM33.6,40.6V17.2L55.7,28.7ZM68.8.7h0Z"/>
</svg>
