<svg id="icon" xmlns="http://www.w3.org/2000/svg" viewBox="0 0 78.1 44.5">
  <defs>
    <style>
      .cls-1 {
        fill: #fff;
      }
    </style>
  </defs>
  <path class="cls-1" d="M42.3,44.4H34.6C16.6,43.6.1,4.8.1,4.8S-.7,2.6,1.9,2,14.2,2,14.2,2a3.5,3.5,0,0,1,3,2.3C22.7,16.2,26,19.9,27.6,21a1.6,1.6,0,0,0,2.3-.4c.6-.8,1.1-2.4,1-5.5l-.4-7.9s-.1-3.3-4.6-3.7c-.3-1.5,1-2.4,2.2-2.9a7.7,7.7,0,0,1,3-.6H42.3a4,4,0,0,1,3.9,4.3V17.3a6.7,6.7,0,0,0,.6,3.1,1.4,1.4,0,0,0,1.8.4c3.6-2,9-13.6,10.6-17.1A3.1,3.1,0,0,1,61.4,2l2.1-.2H75.3c2,0,2.6,1.1,2.7,2.1a3.8,3.8,0,0,1-.5,2.3,68.7,68.7,0,0,1-4.3,6.6l-7,9.5h0a3.4,3.4,0,0,0,.3,5.2c3,2.5,9.9,9.9,10.8,11.7a4,4,0,0,1,.4,2.4,2.4,2.4,0,0,1-1.7,2,15.1,15.1,0,0,1-3.6.5c-3.3.1-7.1.4-9.9.4s-6.3-3.8-6.3-3.8l-4.6-5.3a4.4,4.4,0,0,0-1.9-1.3c-1.1-.4-2.5-.3-3,2.1l-1.1,5.9A3.3,3.3,0,0,1,42.3,44.4Z"/>
</svg>
