<svg id="Layer_1" data-name="Layer 1" xmlns="http://www.w3.org/2000/svg" viewBox="0 0 77.7 55.4">
  <defs>
    <style>
      .cls-1 {
        fill: #151B29;
      }
    </style>
  </defs>
  <title>icon-edit</title>
  <g>
    <path class="cls-1" d="M75.3,0H2.4A2.4,2.4,0,0,0,0,2.4V39a2.4,2.4,0,0,0,2.4,2.4H75.3A2.4,2.4,0,0,0,77.7,39V2.4A2.4,2.4,0,0,0,75.3,0ZM49.7,23,28.6,34.4A1.6,1.6,0,0,1,26.2,33V10.4a1.6,1.6,0,0,1,2.4-1.4L49.6,20.1A1.6,1.6,0,0,1,49.7,23Z"/>
    <path class="cls-1" d="M76.2,43.4H1.5A1.5,1.5,0,0,0,0,44.9v9a1.5,1.5,0,0,0,1.5,1.5H76.2a1.5,1.5,0,0,0,1.5-1.5v-9A1.5,1.5,0,0,0,76.2,43.4ZM10.8,50,7,52.5a.7.7,0,0,1-1-.6V47a.7.7,0,0,1,1-.6l3.8,2.4A.7.7,0,0,1,10.8,50Zm59.5.2H36.7a4,4,0,0,1-8,0H14.3v-2H28.9a4,4,0,0,1,7.6,0H70.3Z"/>
    <circle class="cls-1" cx="32.7" cy="49.6" r="1.8"/>
  </g>
</svg>
