<svg id="Layer_1" data-name="Layer 1" xmlns="http://www.w3.org/2000/svg" viewBox="0 0 129.7 49.2">
  <defs>
    <style>
      .cls-1 {
        fill: #151B29;
      }
    </style>
  </defs>
  <title>icon-aero</title>
  <g class="cls-1">
    <path d="M164.1,78H141.4v-.3a1.6,1.6,0,0,0-3.3,0V78H113.7a1.1,1.1,0,0,0-1.1,1.1h0a1.1,1.1,0,0,0,1.1,1.1h24.5v1.8l-1.5,1.7H114a7.5,7.5,0,0,1-6.3-4.9,9.1,9.1,0,0,0-14.7,0,7.5,7.5,0,0,1-6.3,4.9H63.8l-1.5-1.7V80.1H86.9a1.1,1.1,0,0,0,1.1-1.1h0A1.1,1.1,0,0,0,86.9,78H62.4v-.2a1.6,1.6,0,0,0-3.3,0V78H36.5a1.1,1.1,0,0,0,0,2.1H59.1v1.7l-2.5,2.7v2.6l-1.5,1.5v3c0,4.6,5.2,6.3,5.2,6.3a4.7,4.7,0,0,0,3.5-.2,4.5,4.5,0,0,0,2.5-2.6c1.7-4.9,5.7-5,7.8-5.1,5-.3,9.4.6,12.4.5-15.2,11.2-14.5,33.7-14.5,33.7h4.3l1.4-5.2c-1.2-.3-1.4-1.8-1.4-1.8v-1.6C80.3,97,90.9,91,90.9,91v3l3,.7-1.3,3v4.6a5.2,5.2,0,0,1,4.3,2.3l-5.6,3.7v6.2l4.1,2.5,1.5,2.8h6.7l1.5-2.8,4.1-2.5v-6.2l-5.6-3.7a5.2,5.2,0,0,1,4.3-2.3V97.7l-1.3-3,3-.7V91s10.6,6,14.3,24.7v1.6s-.2,1.6-1.4,1.8l1.4,5.2h4.3s.7-22.4-14.5-33.7c3,.2,7.4-.8,12.4-.5,2.1.1,6.1.2,7.8,5.1a4.5,4.5,0,0,0,2.5,2.6,4.7,4.7,0,0,0,3.5.2s5.2-1.8,5.2-6.3v-3l-1.5-1.5V84.6l-2.5-2.7V80.1h22.6a1.1,1.1,0,1,0,0-2.1Zm-59.9,33.8a3.9,3.9,0,1,1-3.9-3.9A3.9,3.9,0,0,1,104.2,111.9Z" transform="translate(-35.4 -75)"/>
    <circle cx="64.9" cy="36.9" r="1.9"/>
  </g>
</svg>
