<svg id="Layer_1" data-name="Layer 1" xmlns="http://www.w3.org/2000/svg" viewBox="0 0 200 200">
<defs>
    <style>
      .cls-1 {
        fill: #151B29;
      }
    </style>
  </defs>
  <title>icon-web</title>
  <path d="M181.59,157.71a100.35,100.35,0,1,0-3.1,4.14l.94.42Zm-154.35-9a87.05,87.05,0,0,1-14.6-42.44l28.17,0a190.41,190.41,0,0,0,4.66,35.09c-1,.33-2,.65-2.94,1a123.57,123.57,0,0,0-14.78,6.16Zm131.88-55a185.91,185.91,0,0,0-5-34.52,202.12,202.12,0,0,0,19.66-6.43,87,87,0,0,1,13.62,40.91Zm-12.4,0-40.53,0V66.54a207.37,207.37,0,0,0,35.8-4.4A172.88,172.88,0,0,1,146.72,93.75Zm-40.53-39.6V12.63a87.44,87.44,0,0,1,19.33,3.56,229.27,229.27,0,0,1,13.21,33.93A193.94,193.94,0,0,1,106.19,54.15Zm-12.38,0a226.35,226.35,0,0,1-32.74-3.36A231.07,231.07,0,0,1,74.48,16.19a87.44,87.44,0,0,1,19.33-3.56Zm0,12.4V93.81l-40.54,0a173.48,173.48,0,0,1,4.57-31A239.47,239.47,0,0,0,93.81,66.59ZM40.87,93.88l-28.25,0A87,87,0,0,1,25.11,54.58c5.11,1.72,12.07,3.83,20.54,5.8A184.17,184.17,0,0,0,40.87,93.88Zm12.34,12.37,40.6,0v27.1A182.44,182.44,0,0,0,57.47,138,177.48,177.48,0,0,1,53.21,106.25Zm40.6,39.43v41.69a87.33,87.33,0,0,1-20.37-3.89A193.89,193.89,0,0,1,60.55,150,168.34,168.34,0,0,1,93.81,145.68Zm12.38,0a201,201,0,0,1,33.5,4.16,221.75,221.75,0,0,1-12.13,33.33,86.81,86.81,0,0,1-21.37,4.23Zm0-12.4V106.19l40.6-.06a181.14,181.14,0,0,1-4.11,31.58A209.65,209.65,0,0,0,106.19,133.25Zm53-27.13,28.19,0a87.11,87.11,0,0,1-13.31,40.63c-5-1.85-11.52-4-19.29-6.11A194.76,194.76,0,0,0,159.19,106.12ZM166,42.43c-4.1,1.49-9.21,3.16-15.12,4.78a244.75,244.75,0,0,0-8.48-23.87A88.28,88.28,0,0,1,166,42.43ZM57.64,23.34a248.54,248.54,0,0,0-8.83,25c-6.3-1.46-11.73-3-16.11-4.36A88.26,88.26,0,0,1,57.64,23.34ZM35.06,158.74a120,120,0,0,1,13.5-5.32,219,219,0,0,0,7.81,22.5A87.82,87.82,0,0,1,35.06,158.74Zm109.2,16.82a237.44,237.44,0,0,0,7.54-22.85c5.57,1.5,10.45,3,14.52,4.44A88.21,88.21,0,0,1,144.26,175.56Z"/>
</svg>
