<svg id="Layer_1" data-name="Layer 1" xmlns="http://www.w3.org/2000/svg" viewBox="0 0 68.9 77.8">
  <defs>
    <style>
      .cls-1 {
        fill: #151B29;
      }
    </style>
  </defs>
  <title>icon-3d</title>
  <g>
    <path class="cls-1" d="M3.9,20.1l30,18.3a1.2,1.2,0,0,0,1.3,0L65.7,20.1a1.2,1.2,0,0,0,0-2.1L35.1.2a1.2,1.2,0,0,0-1.2,0L3.9,18A1.2,1.2,0,0,0,3.9,20.1Z"/>
    <path class="cls-1" d="M66.6,23.6,37,40.7a1.5,1.5,0,0,0-.8,1.3V76.3a1.5,1.5,0,0,0,2.3,1.3L68.1,60.1a1.5,1.5,0,0,0,.7-1.3V24.9A1.5,1.5,0,0,0,66.6,23.6Z"/>
    <g>
      <path class="cls-1" d="M20.9,48.8a4.7,4.7,0,0,0-1.3-1.1l-2.4-1.3V57.7L19.6,59a1.4,1.4,0,0,0,1.6,0,2.8,2.8,0,0,0,.9-1.7,12,12,0,0,0,.3-2.7,13.6,13.6,0,0,0-.4-3.8A5.7,5.7,0,0,0,20.9,48.8Z"/>
      <path class="cls-1" d="M31.9,40.7,2.3,23.6A1.5,1.5,0,0,0,0,24.9V58.8a1.5,1.5,0,0,0,.7,1.3L30.3,77.6a1.5,1.5,0,0,0,2.3-1.3V42A1.5,1.5,0,0,0,31.9,40.7ZM12.2,55.9A2.1,2.1,0,0,1,10.7,57a3.1,3.1,0,0,1-2.1-.4l-1.2-.8A7.5,7.5,0,0,1,6,54.3,8.3,8.3,0,0,1,4.9,52a10.7,10.7,0,0,1-.5-3.3l2.3,1.2h0a7.3,7.3,0,0,0,.4,2.2,2.8,2.8,0,0,0,1.4,1.7,1,1,0,0,0,1.3-.1,2.4,2.4,0,0,0,.5-1.8,3.7,3.7,0,0,0-1.4-3l-1.3-.8V45.7l.4.2a2.2,2.2,0,0,0,1.4.3q.6-.1.6-1.6a4.7,4.7,0,0,0-.1-1,3.7,3.7,0,0,0-.5-1.1,2.4,2.4,0,0,0-.9-.9q-1.6-.9-1.6,1.9L4.7,42.5a6.7,6.7,0,0,1,.4-2.6,1.9,1.9,0,0,1,1.3-1.2,3.2,3.2,0,0,1,2.2.5l1.3.9a7.5,7.5,0,0,1,1.2,1.4,7.8,7.8,0,0,1,.9,2,8.2,8.2,0,0,1,.3,2.4,3.1,3.1,0,0,1-.4,1.8,1.4,1.4,0,0,1-1,.7h0l.7.9a6.7,6.7,0,0,1,.7,1.7,7.7,7.7,0,0,1,.3,2.3A5.5,5.5,0,0,1,12.2,55.9Zm12.5,2.9a7.9,7.9,0,0,1-.8,2.5,2.7,2.7,0,0,1-1.6,1.4,3.2,3.2,0,0,1-2.4-.4l-5.2-2.8V42.1L20,45a7.4,7.4,0,0,1,2.4,2.1A10.4,10.4,0,0,1,24,49.9a15.6,15.6,0,0,1,.8,3,20.6,20.6,0,0,1,.2,2.9A17.6,17.6,0,0,1,24.7,58.8Z"/>
    </g>
  </g>
</svg>
