<svg xmlns="http://www.w3.org/2000/svg">
   
  <symbol id="stars" viewBox="0 0 141.6 36">
    <title>stars</title>
    <polygon points="18.9 0 23.4 13.7 37.8 13.7 26.1 22.2 30.6 36 18.9 27.5 7.2 36 11.7 22.2 0 13.7 14.4 13.7 18.9 0"/>
    <polygon points="70.8 0 75.3 13.7 89.7 13.7 78 22.2 82.5 36 70.8 27.5 59.1 36 63.6 22.2 51.9 13.7 66.3 13.7 70.8 0"/>
    <polygon points="122.7 0 127.2 13.7 141.6 13.7 129.9 22.2 134.4 36 122.7 27.5 111 36 115.5 22.2 103.8 13.7 118.2 13.7 122.7 0"/>
  </symbol>

  <symbol id="border-down" viewBox="0 0 102.2 115.3">
    <title>img-border</title>
    <path d="M112.2,41.3c11.7-3.4,19.3,5.8,17.8,16.9-.8,6.3.5,10.6,3.3,14.3,4.1,5.6,18.2,10,12,19.1-13.9,20.4,4.7,16.2,3.5,28.7s-17.7,4.6-28.2,11.5-10.9,26.1-23.3,24c-7.2-1.2-7.5-15.9-16-21.4-5.5-3.5-20.3,2.6-23-.7-4.6-5.7,4.2-17.1,2.3-24.9-1.5-6.2-15-11.9-13.9-18.1C49,77.5,57.4,79.2,67.6,72.2c3.7-2.5-2-12.9,4.6-17.8,9-6.7,17.8,5,23.8,3S104.2,43.6,112.2,41.3Z" transform="translate(-46.7 -40.6)"/>
  </symbol>
  
  <symbol id="border-up" viewBox="0 0 110.2 102.1">
    <title>img-border</title>
    <path d="M154.3,98c0,7.6-7.1,9.4-11.6,17.7-2.9,5.6-2.5,18.4-5.8,21.8-4.8,4.9-17.2.6-27.9,2.3-8.6,1.4-15.5,9.4-21.4,9.4-13.5,0-13-11.5-21.6-20.6s-22-8.4-22-20.8c0-7.2,7.3-13.2,11.2-22.5,2.5-6,1-16.2,3.9-19.5,4.8-5.4,13.3-5.3,20.6-8.5S93,47.2,99.2,47.2c13.2,0,10,5.3,18.5,14.1,3.1,3.2,13.2,3.2,18.5,6.4s4.5,10.9,7.5,16.4S154.3,94.1,154.3,98Z" transform="translate(-44.1 -47.2)"/>
  </symbol>

</svg>