<svg xmlns="http://www.w3.org/2000/svg">
   
  <symbol id="geo" viewBox="0 0 32 32">
    <title>geolacation</title>
    <path d="M15.8,0c-5.2,0-9.3,4.2-9.3,9.3c0,5.2,9.3,22.7,9.3,22.7s9.3-17.5,9.3-22.7C25.1,4.2,20.9,0,15.8,0z M15.8,14.2
	  c-2.9,0-5.2-2.3-5.2-5.2s2.3-5.2,5.2-5.2S21,6.2,21,9S18.6,14.2,15.8,14.2z"/>
  </symbol>

  <symbol id="tel" viewBox="0 0 32 32">
    <title>telephone</title>
    <path d="M7.7,3.3l4.3,7.5c0,0-3.1,2.4,0.3,8.2s6.7,3.8,6.7,3.8l4.4,7.4c0,0-0.6,0.4-1.4,0.8S16,33.7,8.4,21
		C0.9,8,5.3,4.8,6.4,4.1C7,3.7,7.7,3.3,7.7,3.3z"/>
	  <path d="M16.2,9.3l-2.5,1.5c-0.4,0.2-0.9,0.1-1.1-0.3L8.3,3.1C8.1,2.7,8.2,2.2,8.6,2l2.5-1.5c0.4-0.2,0.9-0.1,1.1,0.3
		l4.2,7.3C16.7,8.5,16.6,9,16.2,9.3z"/>
	  <path d="M27.5,28.7l-2.5,1.5c-0.4,0.2-0.9,0.1-1.1-0.3l-4.2-7.3c-0.2-0.4-0.1-0.9,0.3-1.1l2.5-1.5
		c0.4-0.2,0.9-0.1,1.1,0.3l4.2,7.3C28,27.9,27.8,28.4,27.5,28.7z"/>
  </symbol>
  
  <symbol id="facebook" viewBox="0 0 32 32">
    <title>facebook</title>
    <path d="M18.4,7.9v3.9h5.7l0,0.4l-0.7,5.2h-5V32h-5.8V17.4h-5v-5.6h5V7c0-3.6,2.7-6.9,6.4-7c2.5,0,5.3,0.3,5.3,0.3v5h-3
	  c-0.4,0-0.7,0-1.1,0.2C19.1,5.8,18.4,6.7,18.4,7.9C18.4,7.9,18.4,7.9,18.4,7.9z"/>
  </symbol>

	<symbol id="telegram" viewBox="0 0 32 32">
    <title>telegram</title>
    <polygon points="0.1,13 31.9,4.9 14.1,27.1 10.8,23.7 7.9,26.7 8,19.7 29.6,6.4 5.6,18.5 "/>
  </symbol>

  <symbol id="vk" viewBox="0 0 32 32">
    <title>vkontakte</title>
		<path d="M17.3,25c-1.2,0-1,0-3.1,0C6.9,24.7,0.2,8.9,0.2,8.9S-0.1,8,1,7.8s5,0,5,0s0.9,0,1.2,0.9
		c2.2,4.8,3.6,6.3,4.2,6.7c0.3,0.2,0.7,0.2,0.9-0.2c0.2-0.3,0.4-1,0.4-2.2c0-0.8-0.2-3.2-0.2-3.2s-0.1-1.3-1.9-1.5
		c-0.1-0.6,0.4-1,0.9-1.2C12,7.1,12.4,7,12.8,7h4.5c0,0,1.5,0,1.6,1.7c0,0.9,0,5.3,0,5.3s0,0.8,0.3,1.3c0.2,0.2,0.5,0.3,0.7,0.2
		c1.5-0.8,3.7-5.5,4.3-6.9c0.2-0.4,0.5-0.6,0.9-0.7c0.2,0,0.5-0.1,0.8-0.1c0.9,0,3.3,0,4.8,0c0.8,0,1.1,0.4,1.1,0.9
		c0,0.3,0,0.7-0.2,0.9c-0.3,0.5-0.9,1.6-1.7,2.7L27.1,16c0,0,0,0,0,0c-0.1,0.1-1,1.2,0.1,2.1c1.2,1,4,4,4.4,4.7
		c0.2,0.3,0.2,0.7,0.2,1c0,0.4-0.3,0.7-0.7,0.8c-0.3,0.1-0.8,0.2-1.5,0.2c-1.4,0.1-2.9,0.2-4,0.2c-1.2,0-2.6-1.5-2.6-1.5l-1.9-2.1
		c-0.2-0.2-0.5-0.4-0.8-0.5c-0.4-0.1-1-0.1-1.2,0.9C19,22.3,18.7,24,18.7,24S18.5,25,17.3,25z"/>
  </symbol>

  <symbol id="instagram" viewBox="0 0 32 32">
    <title>instagram</title>
		<path d="M26.5,0h-21C2.5,0,0,2.5,0,5.5v21c0,3,2.5,5.5,5.5,5.5h21c3.1,0,5.5-2.5,5.5-5.5v-21C32,2.5,29.5,0,26.5,0z M25.3,4
		C26.8,4,28,5.2,28,6.8c0,1.5-1.2,2.8-2.8,2.8s-2.8-1.2-2.8-2.8C22.5,5.2,23.7,4,25.3,4z M9.5,14c0.9-2.8,3.4-4.8,6.5-4.8
		s5.6,2,6.5,4.8c0.2,0.6,0.3,1.3,0.3,2c0,3.7-3,6.8-6.8,6.8s-6.8-3-6.8-6.8C9.3,15.3,9.4,14.6,9.5,14z M29,26.5
		c0,1.4-1.1,2.5-2.5,2.5h-21C4.1,29,3,27.9,3,26.5V16h4.3c0,4.8,3.9,8.8,8.8,8.8s8.8-3.9,8.8-8.8H29V26.5z"/>
  </symbol>
  
  <symbol id="twitter" viewBox="0 0 32 32">
    <title>twitter</title>
    <path d="M15.7,11c-7.7,0-13.5-6.7-13.5-6.7c0,0-2.9,4.9,1.9,8.6c-0.8,0.1-2.7-0.6-2.7-0.6S0.9,17,6.5,18.7
		c-0.8,0.1-2.9,0.1-2.9,0.1s1.4,4.3,6,4.6C6.6,26.4,0,26.1,0,26.1s5.6,3.1,10,2.9C29.3,28,28.8,9.5,28.8,9.5s1.7-1.2,3.1-3.2
		c-1.6,0.4-3.2,0.9-3.5,0.7c2.1-1.6,2.6-3.4,2.6-3.4s-3.4,1.6-4,1.5C23,1.1,18.7,4,18.7,4S14.8,6.4,15.7,11z"/>
  </symbol>

  <symbol id="youtube" viewBox="0 0 32 32">
    <title>youtube</title>
		<path d="M31.7,16.2c0,0,0-0.1,0-0.2l0,0v0c0,0,0-0.1,0-0.1v-0.2c0-9.4-1.7-10.2-5-10.4c0,0,0,0,0,0c0,0,0,0,0,0S22,5,16,5
		c0,0,0,0,0,0C10.1,5,5.3,5.3,5.3,5.3s0,0,0,0c0,0,0,0,0,0c-3.2,0.2-5,1-5,10.4c0,0,0,0.1,0,0.2l0,0v0c0,0,0,0.1,0,0.1v0.2
		c0,9.4,1.7,10.3,4.9,10.5c0,0,0,0,0,0c0,0,0,0,0,0S10.1,27,16,27c0,0,0,0,0,0c5.9,0,10.7-0.4,10.7-0.4s0,0,0,0c0,0,0,0,0,0
		C30,26.4,31.7,25.6,31.7,16.2z M5.9,26.7C6,26.7,6,26.7,5.9,26.7C6,26.7,5.9,26.7,5.9,26.7z M12.9,20.2v-8.8l8.3,4.3L12.9,20.2z
		M26,5.3C26,5.3,26,5.3,26,5.3C26,5.3,26,5.3,26,5.3z"/>
  </symbol>

	<symbol id="mail" viewBox="0 0 32 32">
    <title>e-mail</title>
		<path d="M30.1,5.2H1.7l13.8,11.5c0.3,0.3,0.8,0.3,1.1,0L30.1,5.2z"/>
		<polygon points="10.9,15.8 0,6.7 0,25.1"/>
		<polygon points="21.1,15.7 32,25.1 32,6.5"/>
		<path d="M19.4,17.2l-2.5,2.1c-0.2,0.2-0.5,0.3-0.8,0.3c-0.3,0-0.6-0.1-0.8-0.3l-2.5-2.1L1.6,26.8h28.9L19.4,17.2z"/>
  </symbol>

	<symbol id="site2" viewBox="0 0 32 32">
    <title>web-chain</title>
		<path d="M21.4,13.1c-0.1-0.2-1.9-2-1.9-2c-0.2-0.2-0.4-0.3-0.6-0.5l-2.4,2.4c0.2,0.1,0.4,0.3,0.6,0.4c0,0,1.8,1.8,1.9,2
		c0.2,0.3,0.3,0.7,0.3,1.1c0,0.6-0.2,1.2-0.7,1.7L8.9,28c-0.9,0.9-2.5,0.9-3.4,0L4,26.5c-0.5-0.5-0.7-1.1-0.7-1.7
		c0-0.6,0.2-1.2,0.7-1.7l4.5-4.5c-0.5-1-0.8-2.1-0.8-3.3c0-0.3,0-0.5,0-0.7l-6.1,6.1C0.6,21.8,0,23.3,0,24.8c0,1.5,0.6,3,1.7,4.1
		l1.4,1.4C4.3,31.4,5.7,32,7.2,32c1.5,0,2.9-0.6,4.1-1.7l9.6-9.6c1.6-1.6,2.1-4,1.3-6.1C22,14.1,21.7,13.6,21.4,13.1z"/>
		<path d="M23.1,4c0.5-0.5,1.1-0.7,1.7-0.7c0.6,0,1.2,0.2,1.7,0.7L28,5.5c0.5,0.5,0.7,1.1,0.7,1.7S28.4,8.4,28,8.9l-4.5,4.5
		c0.6,1.3,0.9,2.6,0.7,4l6.1-6.1c2.2-2.2,2.2-5.9,0-8.1l-1.4-1.4C27.8,0.6,26.3,0,24.8,0c-1.5,0-3,0.6-4.1,1.7l-9.6,9.6
		c-1.1,1.1-1.7,2.5-1.7,4.1c0,0.7,0.1,1.4,0.4,2c0.2,0.5,0.5,1.1,0.8,1.5c0.1,0.2,1.9,2,1.9,2c0.2,0.2,0.4,0.3,0.6,0.5l2.4-2.4
		c-0.2-0.1-0.4-0.3-0.6-0.4c0,0-1.8-1.8-1.9-2c-0.2-0.3-0.3-0.7-0.3-1.1c0-0.6,0.2-1.2,0.7-1.7"/>
  </symbol>

	<symbol id="site" viewBox="0 0 32 32">
    <title>web-chain</title>
		<path d="M20.6,0.3c-2.4,0.2-4.6,1.3-6.3,3l-3.3,3.3l2.5,2.5l3.3-3.3c1.2-1.2,2.6-1.8,4.1-1.9c1.9-0.2,3.9,0.5,5.3,1.9
		c1.5,1.5,2.1,3.4,1.9,5.3c-0.1,1.5-0.8,3-1.9,4.1l-3.3,3.3l2.5,2.5l3.3-3.3c1.7-1.7,2.7-3.9,3-6.3c0.3-3-0.8-6-3-8.1
		C26.6,1.1,23.6,0,20.6,0.3z M0.9,17.9c-1.4,3.7-0.5,8,2.4,10.8s7.1,3.7,10.8,2.4c1.4-0.5,2.6-1.3,3.7-2.4l3.3-3.3l-2.5-2.5
		l-3.3,3.3c-0.7,0.7-1.5,1.2-2.4,1.5c-2.4,0.9-5.1,0.4-7.1-1.5c-1.9-1.9-2.4-4.7-1.5-7.1c0.3-0.9,0.8-1.7,1.5-2.4l3.3-3.3l-2.5-2.5
		l-3.3,3.3C2.2,15.3,1.4,16.6,0.9,17.9z"/>
		<path d="M18.3,10.6l-7.8,7.8c-0.9,0.9-0.9,2.2,0,3.1s2.2,0.9,3.1,0l7.8-7.8c0.9-0.9,0.9-2.2,0-3.1S19.2,9.7,18.3,10.6z"/>
  </symbol>

	<symbol id="www" viewBox="0 0 32 32">
    <title>web</title>
		<path d="M29.1,25.2c1.9-2.6,2.9-5.8,2.9-9.2c0-8.8-7.2-16-16-16S0,7.2,0,16s7.2,16,16,16c5.1,0,9.6-2.4,12.6-6.1
		c0.1,0,0.1,0.1,0.2,0.1L29.1,25.2z M4.4,23.8C3,21.8,2.2,19.5,2,17l4.5,0c0.1,2,0.4,3.9,0.7,5.6c-0.2,0.1-0.3,0.1-0.5,0.2
		C5.9,23.1,5.2,23.4,4.4,23.8C4.4,23.8,4.4,23.8,4.4,23.8z M25.5,15c-0.1-1.9-0.4-3.8-0.8-5.5c1.3-0.4,2.4-0.7,3.1-1
		c1.2,1.9,2,4.1,2.2,6.5L25.5,15z M23.5,15L17,15v-4.4c2.1-0.1,4-0.3,5.7-0.7C23.1,11.5,23.4,13.2,23.5,15z M17,8.7V2
		c1.1,0.1,2.1,0.3,3.1,0.6c0.4,0.7,1.3,2.7,2.1,5.4C20.7,8.3,18.9,8.6,17,8.7z M15,8.7c-1.9-0.1-3.7-0.3-5.2-0.5
		c0.8-2.7,1.8-4.8,2.1-5.5c1-0.3,2-0.5,3.1-0.6V8.7z M15,10.7V15l-6.5,0c0.1-1.7,0.4-3.4,0.7-5C10.9,10.4,12.9,10.6,15,10.7z M6.5,15
		L2,15c0.2-2.3,0.9-4.4,2-6.3C4.8,9,5.9,9.3,7.3,9.7C6.9,11.3,6.6,13.1,6.5,15z M8.5,17l6.5,0v4.3c-2.3,0.1-4.2,0.4-5.8,0.8
		C8.8,20.5,8.6,18.8,8.5,17z M15,23.3V30c-1.1-0.1-2.2-0.3-3.3-0.6C11.6,29,10.5,27,9.7,24C11.2,23.7,12.9,23.4,15,23.3z M17,23.3
		c1.9,0.1,3.8,0.3,5.4,0.7c-0.7,2.6-1.6,4.5-1.9,5.3c-1.1,0.4-2.2,0.6-3.4,0.7V23.3z M17,21.3V17l6.5,0c-0.1,1.8-0.3,3.5-0.7,5.1
		C21.1,21.7,19.1,21.4,17,21.3z M25.5,17l4.5,0c-0.2,2.4-0.9,4.6-2.1,6.5c-0.8-0.3-1.8-0.6-3.1-1C25.1,20.8,25.4,18.9,25.5,17z
		M26.6,6.8c-0.7,0.2-1.5,0.5-2.4,0.8c-0.4-1.5-0.9-2.8-1.4-3.8C24.2,4.5,25.5,5.6,26.6,6.8z M9.2,3.7c-0.4,1.1-1,2.4-1.4,4
		C6.8,7.5,5.9,7.3,5.2,7C6.3,5.7,7.7,4.6,9.2,3.7z M5.6,25.4c0.5-0.2,1.2-0.5,2.2-0.9C8.2,26,8.6,27.2,9,28.1
		C7.7,27.4,6.6,26.5,5.6,25.4z M23.1,28.1c0.4-1,0.8-2.2,1.2-3.7c0.9,0.2,1.7,0.5,2.3,0.7C25.6,26.3,24.4,27.3,23.1,28.1z"/>
  </symbol>

	<symbol id="s-media" viewBox="0 0 32 32">
    <title>soc media</title>
		<path d="M26,21.9c-1.4,0-2.6,0.6-3.5,1.5L14,18.6c0.3-0.8,0.5-1.7,0.5-2.6c0-0.9-0.2-1.8-0.5-2.6l8.5-4.9c0.9,1,2.1,1.5,3.5,1.5
		c2.6,0,4.7-2.1,4.7-4.7S28.6,0.7,26,0.7s-4.7,2.1-4.7,4.7c0,0.5,0.1,1,0.2,1.4l-8.5,4.9c-1.2-1.4-3-2.3-5-2.3c-3.6,0-6.6,3-6.6,6.6
		c0,3.6,3,6.6,6.6,6.6c2,0,3.8-0.9,5-2.3l8.5,4.9c-0.1,0.4-0.2,0.9-0.2,1.4c0,2.6,2.1,4.7,4.7,4.7s4.7-2.1,4.7-4.7S28.6,21.9,26,21.9z"/>
	</symbol>

	<symbol id="lang" viewBox="0 0 32 32">
    <title>language</title>
		<path d="M22.5,6.2c-1.1-0.3-2.2-0.4-3.3-0.4h-0.4l0.2-1.3l0.3-2.8h-6.4c-1.2,0-2.3,0.1-3.3,0.4C4.1,3.5,0.2,8.3,0.2,14
		c0,5.7,4,10.4,9.3,11.9c1.1,0.3,2.2,0.4,3.3,0.4h2.5l-2.6,4.1h6.4c1.2,0,2.3-0.1,3.3-0.4c5.4-1.4,9.3-6.2,9.3-11.9
		C31.8,12.4,27.9,7.6,22.5,6.2z M17.8,16l1.1,2.1L17,21.7l0.7-5.8C17.7,15.9,17.7,16,17.8,16z M13.6,17.9h-2.2l-1.4-5.1l-1.4,5.1H6.2
		L4,9.7h2.3L7.5,15L9,9.7h1.9l1.4,5.3l1.2-5.3h2.3L13.6,17.9z M22.3,29.1c-1,0.3-2.1,0.4-3.1,0.4h-4.9l2-3.2l0.1-0.2l0-0.2l0.4-3.6
		h1.9l1.8-3.4h0.8v3.4h2.1V19h0.8l1.8,3.4h2.2l-2.3-4.2l1.1-2.1c0-0.1,0.1-0.2,0.2-0.2c0.1-0.1,0.2-0.1,0.3-0.1h0.5v-1.6
		C27.8,14,27.5,14,27.3,14c-0.4,0-0.8,0.1-1,0.3c-0.3,0.2-0.5,0.5-0.6,0.8l-1.2,2.2h-0.8v-3.2h-2.1v3.2h-0.8l-1.2-2.2
		c-0.2-0.3-0.4-0.6-0.6-0.8c-0.2-0.2-0.6-0.3-0.9-0.3l0.9-7.4h0.4c1.1,0,2.1,0.1,3.1,0.4C27.4,8.3,31,12.9,31,18
		C31,23.2,27.4,27.8,22.3,29.1z"/>
	</symbol>

	<symbol id="clock" viewBox="0 0 32 32">
    <title>clock</title>
		<polygon points="16,17.1 16,8.1 12.9,8.1 12.9,17.1 12.9,20 16,20 25,20 25,17.1"/>
		<path d="M16,32C7.2,32,0,24.8,0,16S7.2,0,16,0s16,7.2,16,16S24.8,32,16,32z M16,2.9C8.8,2.9,2.9,8.8,2.9,16S8.8,29.1,16,29.1 S29.1,23.2,29.1,16S23.2,2.9,16,2.9z"/>
	</symbol>



	<symbol id="theme" viewBox="0 0 32 32">
    <title>theme-color</title>
		<path d="M16,0C7.2,0,0,7.2,0,16s7.2,16,16,16c8.8,0,16-7.2,16-16C32,7.2,24.8,0,16,0z M3,16C3,8.8,8.8,3,16,3v26 C8.8,29,3,23.2,3,16z"/>
	</symbol>

</svg>