<svg id="Layer_1" data-name="Layer 1" xmlns="http://www.w3.org/2000/svg" viewBox="0 0 236.3 96.4">
  <defs>
    <style>
      .cls-1 {
        fill: #ffffff;
      }
    </style>
  </defs>
  <title>Promo-Video-Text</title>
  <g class="cls-1">
    <path d="M89,141.9l22.9,9.6-3,7.2-18.2-7.6-2.4,5.6,18.2,7.6-3,7.2-22.9-9.6Z" transform="translate(-80.6 -75.2)"/>
    <path d="M113.4,149.1,93.3,134.5q1.9-3.2,5.9-8.7t6.2-5.5q2.7-.7,6.7,2.2t4.2,5.5q.2,2.7-2.8,6.9a32.2,32.2,0,0,1-2.4,2.9l6.9,5Zm-6.6-14.5,1.5-2a2.9,2.9,0,0,0,.8-2.1q-.1-.8-1.5-1.8a3.7,3.7,0,0,0-2.2-.9q-.8.1-1.7,1.4l-1.5,2Z" transform="translate(-80.6 -75.2)"/>
    <path d="M118,105.2a17.1,17.1,0,0,1,5.9-3.7,7,7,0,0,1,5.3.6,21.6,21.6,0,0,1,6.1,5.3,21.5,21.5,0,0,1,4.3,6.8,7,7,0,0,1-.2,5.3,21.9,21.9,0,0,1-10.3,8.9,6.9,6.9,0,0,1-5.3-.6,21.5,21.5,0,0,1-6.1-5.3,21.5,21.5,0,0,1-4.3-6.8,7,7,0,0,1,.2-5.3A17,17,0,0,1,118,105.2Zm6.8,3.7a3.2,3.2,0,0,0-4.1,3.5q.4,1.5,3.2,4.8t4.2,3.9a3.2,3.2,0,0,0,4.1-3.5q-.4-1.5-3.2-4.8T124.8,108.9Z" transform="translate(-80.6 -75.2)"/>
    <path d="M152.7,84.3l6.2-2.9a2.5,2.5,0,0,1,3.6,1.3l10,19.8-6.4,2.9-8.6-17-.5.2,3.1,12.5a2.6,2.6,0,0,1-1.7,3.4l-3.7,1.7a2.7,2.7,0,0,1-3.7-.9l-7.5-10.5-.5.2,7.4,17.5-6.4,2.9-8.5-20.5a2.5,2.5,0,0,1,1.4-3.6l6.1-2.8a2.7,2.7,0,0,1,3.7,1l5.8,8.2,1.9,3.2h.3l-.5-1.5-.7-2.1L151,87.8A2.7,2.7,0,0,1,152.7,84.3Z" transform="translate(-80.6 -75.2)"/>
    <path d="M181.7,76a17.1,17.1,0,0,1,6.9.1,7,7,0,0,1,4.1,3.3,21.6,21.6,0,0,1,2.3,7.7,21.6,21.6,0,0,1,0,8,7,7,0,0,1-3,4.4,21.9,21.9,0,0,1-13.5,2,6.9,6.9,0,0,1-4.1-3.3,21.5,21.5,0,0,1-2.3-7.7,21.5,21.5,0,0,1,0-8,7,7,0,0,1,3-4.4A17,17,0,0,1,181.7,76Zm3.7,6.8a3.2,3.2,0,0,0-5.3.8q-.5,1.5.2,5.7t1.5,5.5A3.2,3.2,0,0,0,187,94q.5-1.5-.2-5.7T185.4,82.7Z" transform="translate(-80.6 -75.2)"/>
    <path d="M205.9,99.7l3.8-24.5q3.7.2,10.4,1.3t7.8,3q1.9,2.1,1.1,7t-3,6.2q-2.3,1.4-7.4.6l-3.7-.8-1.3,8.5Zm9.8-12.5,2.5.4a2.9,2.9,0,0,0,2.2-.2,3.5,3.5,0,0,0,.9-2.2,3.7,3.7,0,0,0-.2-2.4,2.9,2.9,0,0,0-2-.9l-2.5-.4Z" transform="translate(-80.6 -75.2)"/>
    <path d="M247.1,83.8a17.1,17.1,0,0,1,5.9,3.6,7,7,0,0,1,1.9,4.9,21.6,21.6,0,0,1-1.9,7.8,21.6,21.6,0,0,1-4.1,6.9,6.9,6.9,0,0,1-4.8,2.3,21.8,21.8,0,0,1-12.7-5.1,6.9,6.9,0,0,1-1.9-5,21.5,21.5,0,0,1,1.9-7.8,21.6,21.6,0,0,1,4.1-6.9,7,7,0,0,1,4.8-2.3A17,17,0,0,1,247.1,83.8Zm-.2,7.7a3.2,3.2,0,0,0-5-2q-1.2,1.1-2.8,5t-1.5,5.5a3.2,3.2,0,0,0,5,2q1.2-1.1,2.8-5T246.9,91.5Z" transform="translate(-80.6 -75.2)"/>
    <path d="M281.6,104.9l-14.5,20.2-6.3-4.6,11.5-16-1.2-.9a1.6,1.6,0,0,0-2.5.2,64,64,0,0,1-8.5,8.9q-3.4,2.6-6.2,2.2a9.9,9.9,0,0,1-5.6-3.2l3.1-5.2,1.4.7,1.3.2a2.8,2.8,0,0,0,1.4-.5q2.5-1.8,7.4-7.7t9-1.2Z" transform="translate(-80.6 -75.2)"/>
    <path d="M283.6,143.9l-4.8-5.7,8.7-7.4a24.4,24.4,0,0,1,3.2-2.2l-.2-.2a20.4,20.4,0,0,1-3.9,1.3L274,132.6l-4.8-5.7,19-16.1,4.8,5.7-8.4,7.1a27.4,27.4,0,0,1-3.3,2.3l.2.2a21.7,21.7,0,0,1,3.9-1.3l12.5-2.6,4.8,5.7Z" transform="translate(-80.6 -75.2)"/>
    <path d="M302.8,152.8h-.2q1.1,3.5.1,5.3t-6.8,7l-1,1-3.6-7.3q5.5-4.9,6.4-5.9a3,3,0,0,0,.9-2.5,6.2,6.2,0,0,0-.5-1.4l-.4-.7a10.3,10.3,0,0,1-1.9,1.3l-7.2,3.6-3.5-7,22.2-11.1,3.5,7-5.6,2.8a13.4,13.4,0,0,1-3,1.1l.4.7a3.2,3.2,0,0,0,2.6,2.1,35.2,35.2,0,0,0,7.2-1.2l1-.2,3.5,7.1-7.6,1.3a6.3,6.3,0,0,1-4.1-.6A8,8,0,0,1,302.8,152.8Z" transform="translate(-80.6 -75.2)"/>
  </g>
</svg>
