<svg id="Layer_1" data-name="Layer 1" xmlns="http://www.w3.org/2000/svg" viewBox="0 0 73.9 59.6">
  <defs>
    <style>
      .cls-1 {
        fill: #151B29;
      }
    </style>
  </defs>
  <title>icon-foto</title>
  <g>
    <path class="cls-1" d="M0,13.7V50.1a6.3,6.3,0,0,0,6.3,6.3H29.8a20.4,20.4,0,0,0,22.1,0H67.6a6.3,6.3,0,0,0,6.3-6.3V13.7Zm65.4,1.5a2.1,2.1,0,1,1-2.1,2.1A2.1,2.1,0,0,1,65.4,15.1ZM13.8,18.9v31H9.9v-31s2.7-4.2,5-3.4S13.8,18.9,13.8,18.9ZM40.6,54A18.8,18.8,0,1,1,59.4,35.1,18.8,18.8,0,0,1,40.6,54Zm29.7-4.8H62V44.5h8.2Z"/>
    <path class="cls-1" d="M40.5,21.6A13.4,13.4,0,1,0,53.9,35.1,13.4,13.4,0,0,0,40.5,21.6Zm0,23.9A10.5,10.5,0,1,1,51,35.1,10.5,10.5,0,0,1,40.5,45.5Z"/>
    <circle class="cls-1" cx="40.5" cy="35.1" r="8.9"/>
    <path class="cls-1" d="M69.4,7.5H67.7V2.8H55.9V7.5H54.6L50.3,0H31.3L26.7,7.4H25.2V3H12.8V7.5H4.5A4.5,4.5,0,0,0,0,12H73.9A4.5,4.5,0,0,0,69.4,7.5Zm-20.9.9H33.8V3H48.5Z"/>
  </g>
</svg>
