<svg id="Layer_1" data-name="Layer 1" xmlns="http://www.w3.org/2000/svg" viewBox="0 0 64.9 63.1">
  <defs>
    <style>
      .cls-1 {
        fill: #151B29;
      }
    </style>
  </defs>
  <title>icon-wallet</title>
  <g class="cls-1">
    <path d="M49.5,27.9H60.8V22.1a7,7,0,0,0-7-7H7a7,7,0,0,0-7,7v34a7,7,0,0,0,7,7H53.8a7,7,0,0,0,7-7V50.4H49.5a11.3,11.3,0,0,1,0-22.5Zm3.3-8.6a5.6,5.6,0,0,1,2.7,3l-1.7.6A3.9,3.9,0,0,0,52,20.9ZM54,53.8l1.8.2A5.6,5.6,0,0,1,54,57.6l-1.2-1.3A3.8,3.8,0,0,0,54,53.8Zm-7.3,3.5h3.5v1.8H46.7Zm-7,0h3.5v1.8H39.8Zm5.7-38.6H49v1.8H45.5ZM6.9,20.1l1.2,1.3a3.8,3.8,0,0,0-1.2,2.5l-1.8-.2A5.6,5.6,0,0,1,6.9,20.1ZM5.1,27.3H6.9v3.5H5.1Zm0,7H6.9v3.5H5.1Zm0,7H6.9v3.5H5.1Zm0,7H6.9v3.5H5.1Zm3,10.3a5.6,5.6,0,0,1-2.7-3l1.7-.6a3.9,3.9,0,0,0,1.8,2.1Zm2.6-39.8h3.5v1.8H10.7Zm4.7,40.4H11.9V57.3h3.5Zm2.2-40.4h3.5v1.8H17.7Zm4.7,40.4H18.9V57.3h3.5Zm2.2-40.4h3.5v1.8H24.6Zm4.7,40.4H25.8V57.3h3.5Zm2.2-40.4h3.5v1.8H31.6Zm4.7,40.4H32.8V57.3h3.5Zm2.2-38.6V18.7H42v1.8Z"/>
    <path d="M49.3,30.9h0a8.2,8.2,0,0,0,0,16.5H64.9V30.9Zm2,12.8a4.6,4.6,0,1,1,4.6-4.6A4.6,4.6,0,0,1,51.3,43.7Z"/>
    <path d="M17.8,13.5l36.1-.2v-4a3.7,3.7,0,0,0-4.6-3.6Z"/>
    <path d="M17.8,11.8,47.4,4.4l-.8-1.7a4.9,4.9,0,0,0-6.9-2Z"/>
  </g>
</svg>
