<svg id="Layer_1" data-name="Layer 1" xmlns="http://www.w3.org/2000/svg" viewBox="0 0 76.5 62.7">
  <defs>
    <style>
      .cls-1 {
        fill: #151B29;
      }
    </style>
  </defs>
  <title>icon-video</title>
  <g>
    <polygon class="cls-1" points="33.5 39.5 33.5 53.5 46.2 45.9 33.5 39.5"/>
    <g>
      <polygon class="cls-1" points="1.5 21.7 1.5 30.4 8.4 21.7 1.5 21.7"/>
      <path class="cls-1" d="M76.3,21.7l-6.8,8.7H62.1l7.1-8.7H61.2l-6.8,8.7H46.9l7.1-8.7H46l-6.8,8.7H31.8l7.1-8.7H30.8l-6.8,8.7H16.6l7.1-8.7H15.7L8.9,30.4H1.5V62.7h75V30.5h0V21.7Zm-38,37.2A12.7,12.7,0,1,1,51,46.1,12.7,12.7,0,0,1,38.3,58.8Z"/>
    </g>
    <g>
      <polygon class="cls-1" points="0 13.5 6.8 12.2 1.6 22 0 13.5"/>
      <polygon class="cls-1" points="14 10.9 21.9 9.5 16.3 19.4 8.8 20.8 14 10.9"/>
      <polygon class="cls-1" points="28.9 8.2 36.8 6.7 31.2 16.7 23.7 18.1 28.9 8.2"/>
      <polygon class="cls-1" points="43.8 5.5 51.7 4 46.2 14 38.6 15.4 43.8 5.5"/>
      <polygon class="cls-1" points="58.7 2.8 66.6 1.3 61.1 11.3 53.5 12.7 58.7 2.8"/>
      <polygon class="cls-1" points="73.8 0 73.6 0 68.4 9.9 75.4 8.7 73.8 0"/>
    </g>
  </g>
</svg>
