<svg id="Layer_1" data-name="Layer 1" xmlns="http://www.w3.org/2000/svg" viewBox="0 0 93.5 54.1">
  <defs>
    <style>
      .cls-1 {
        fill: #151B29;
      }
    </style>
  </defs>
  <title>icon-consult</title>
  <g>
    <g>
      <path class="cls-1" d="M14.5,37.9V20.6H2.8A2.8,2.8,0,0,0,0,23.4V44.1a2.8,2.8,0,0,0,2.8,2.8h9.5l5.8,6.5,5.6-6.5h-.2A9,9,0,0,1,14.5,37.9Z"/>
      <path class="cls-1" d="M90.7,20.6H79.1V37.9a9,9,0,0,1-9,9h-.3l5.7,6.5,5.8-6.5h9.4a2.8,2.8,0,0,0,2.8-2.8V23.4A2.8,2.8,0,0,0,90.7,20.6Z"/>
    </g>
    <path class="cls-1" d="M70.6,0H22a5.6,5.6,0,0,0-5.6,5.6V37.7A5.6,5.6,0,0,0,22,43.3H36.9l9.4,10.8,9.4-10.8H70.6a5.6,5.6,0,0,0,5.6-5.6V5.6A5.6,5.6,0,0,0,70.6,0Z"/>
  </g>
</svg>
