<svg id="Layer_1" data-name="Layer 1" xmlns="http://www.w3.org/2000/svg" viewBox="0 0 224.3 84.3">
  <defs>
    <style>
      .cls-1 {
        fill: #ffffff;
      }
    </style>
  </defs>
  <title>promo-video-text-en</title>
  <g class="cls-1">
    <path d="M108.2,159,86.7,146.7q1.5-3.4,4.9-9.3t5.6-6.2q2.6-1,6.9,1.4t4.8,5q.5,2.6-2,7.1a32.3,32.3,0,0,1-2.1,3.2l7.4,4.2Zm-8.2-13.7,1.2-2.2a2.9,2.9,0,0,0,.6-2.1q-.2-.8-1.7-1.6a3.7,3.7,0,0,0-2.3-.7q-.8.2-1.6,1.6L95,142.4Z" transform="translate(-86.7 -74.7)"/>
    <path d="M134.2,123.8l-5.5,6-6.5-3.8a2.3,2.3,0,0,0-1.4-.4,2.4,2.4,0,0,0-1.2.8l-1.6,1.8,6.7,6.1-5.2,5.7L101,123.2q2.2-2.9,6.9-8t6.7-4.8q2.9-.7,6,2.2t.9,7.7h.2a4.4,4.4,0,0,1,5.6-.4Zm-20.4.7,1.8-2a3.5,3.5,0,0,0,1.1-2,4.1,4.1,0,0,0-3-2.8,3.5,3.5,0,0,0-1.9,1.3l-1.8,2Z" transform="translate(-86.7 -74.7)"/>
    <path d="M129.7,96.2a17.1,17.1,0,0,1,6.3-2.9,7,7,0,0,1,5.1,1.2,21.5,21.5,0,0,1,5.4,5.9,21.6,21.6,0,0,1,3.5,7.2,7,7,0,0,1-.8,5.2,21.9,21.9,0,0,1-11.3,7.7,6.9,6.9,0,0,1-5.1-1.2,21.5,21.5,0,0,1-5.4-5.9,21.6,21.6,0,0,1-3.5-7.2,7,7,0,0,1,.8-5.2A17,17,0,0,1,129.7,96.2Zm6.3,4.5a3.2,3.2,0,0,0-4.4,3q.2,1.6,2.7,5.1t3.8,4.3a3.2,3.2,0,0,0,4.4-3q-.2-1.5-2.7-5.1T135.9,100.7Z" transform="translate(-86.7 -74.7)"/>
    <path d="M166.4,79.6l6.5-2.1a2.5,2.5,0,0,1,3.4,1.7L184,100l-6.7,2.2-6.6-17.8-.5.2,1.6,12.8a2.6,2.6,0,0,1-2.1,3.2l-3.8,1.2a2.7,2.7,0,0,1-3.6-1.3l-6.3-11.3-.5.2,5.3,18.3-6.7,2.2-6-21.3a2.5,2.5,0,0,1,1.8-3.4l6.4-2.1a2.7,2.7,0,0,1,3.6,1.4l4.8,8.8,1.5,3.4h.3l-.3-1.5-.4-2.1-1.4-9.9A2.7,2.7,0,0,1,166.4,79.6Z" transform="translate(-86.7 -74.7)"/>
    <path d="M196,74.7a17.1,17.1,0,0,1,6.9.9,7,7,0,0,1,3.7,3.8,21.5,21.5,0,0,1,1.4,7.9,21.5,21.5,0,0,1-.9,8,6.9,6.9,0,0,1-3.5,4,21.9,21.9,0,0,1-13.7.4,6.9,6.9,0,0,1-3.7-3.8,21.5,21.5,0,0,1-1.4-7.9,21.5,21.5,0,0,1,.9-8,7,7,0,0,1,3.5-4A17,17,0,0,1,196,74.7Zm2.9,7.1a3.2,3.2,0,0,0-5.4.2q-.6,1.4-.5,5.7t.8,5.7a3.2,3.2,0,0,0,5.4-.2q.6-1.4.5-5.7T198.9,81.8Z" transform="translate(-86.7 -74.7)"/>
    <path d="M244.4,82.7,232.6,103a2.6,2.6,0,0,1-1.3,1.2,2.7,2.7,0,0,1-1.8.1l-6.6-1.8a2.7,2.7,0,0,1-1.5-1,2.6,2.6,0,0,1-.5-1.7V76.3l7.7,2.1-1.1,16.4q0,.3-.3,2.9l.8.2q.5-1.2,1.2-2.6l7.3-14.8Z" transform="translate(-86.7 -74.7)"/>
    <path d="M245.5,110.9l-7-3.3L249,85.1l7,3.3Z" transform="translate(-86.7 -74.7)"/>
    <path d="M248.2,111.7l14.2-20.4q5.4,3.3,8.9,5.8a17.1,17.1,0,0,1,5,4.8,7,7,0,0,1,.7,5.2,21,21,0,0,1-3.5,7.1,21,21,0,0,1-5.4,5.8,7,7,0,0,1-5.1,1.1,17.1,17.1,0,0,1-6.3-3Q252.3,115,248.2,111.7Zm9.5.1,2.3,1.6a2.7,2.7,0,0,0,3,.4q1.4-.8,3.8-4.3t2.7-5.1a2.7,2.7,0,0,0-1.4-2.7l-2.3-1.6Z" transform="translate(-86.7 -74.7)"/>
    <path d="M284.2,135.3l-3.8,4a117.8,117.8,0,0,1-9.1-9.2,5.8,5.8,0,0,1-1.7-4.1,5.4,5.4,0,0,1,1.9-4l10.2-9.4a5.4,5.4,0,0,1,4.1-1.6,5.8,5.8,0,0,1,4,2,118.1,118.1,0,0,1,8.4,9.8l-4.3,3.5-6.2-6.7a1.5,1.5,0,0,0-1-.6,1.2,1.2,0,0,0-1,.3l-1.8,1.6,6.3,6.8-3.8,3.5-6.3-6.8-2.2,2a1.2,1.2,0,0,0-.4.9,1.5,1.5,0,0,0,.5,1Z" transform="translate(-86.7 -74.7)"/>
    <path d="M308.5,137.2a17.1,17.1,0,0,1,2.5,6.5,7,7,0,0,1-1.6,5,27.9,27.9,0,0,1-13.7,8,6.9,6.9,0,0,1-5.2-1.1,21.9,21.9,0,0,1-6.9-11.8,7,7,0,0,1,1.6-5,27.9,27.9,0,0,1,13.7-8,7,7,0,0,1,5.2,1.1A17,17,0,0,1,308.5,137.2Zm-4.9,5.9a3.2,3.2,0,0,0-2.7-4.6q-1.6.1-5.3,2.3t-4.6,3.4a3.2,3.2,0,0,0,2.7,4.6q1.6-.1,5.3-2.3T303.6,143.1Z" transform="translate(-86.7 -74.7)"/>
  </g>
</svg>
